<?xml version="1.0" standalone="no"?>
<!DOCTYPE svg PUBLIC "-//W3C//DTD SVG 20010904//EN"
 "http://www.w3.org/TR/2001/REC-SVG-20010904/DTD/svg10.dtd">
<svg version="1.0" xmlns="http://www.w3.org/2000/svg"
 width="512.000000pt" height="512.000000pt" viewBox="0 0 512.000000 512.000000"
 preserveAspectRatio="xMidYMid meet">

<g transform="translate(0.000000,512.000000) scale(0.100000,-0.100000)"
fill="#ffffff" stroke="none">
<path d="M885 5104 c-411 -73 -744 -378 -852 -780 -24 -88 -27 -117 -26 -259
0 -140 3 -172 26 -257 31 -119 89 -243 158 -343 72 -105 216 -239 322 -300
l86 -50 1 -1310 c0 -1436 -2 -1383 60 -1509 59 -120 163 -212 300 -266 l65
-25 1530 0 1530 0 68 23 c133 47 246 145 307 268 62 126 60 73 60 1511 l0
1312 21 6 c48 16 200 130 275 207 137 141 222 290 271 476 23 85 26 117 26
257 1 142 -2 171 -26 259 -109 406 -443 709 -861 781 -129 22 -3217 21 -3341
-1z m3380 -312 c219 -74 390 -219 479 -405 185 -388 9 -848 -389 -1016 -36
-15 -74 -36 -86 -47 -52 -47 -49 27 -49 -1439 0 -980 -3 -1379 -11 -1411 -16
-62 -85 -137 -146 -158 -42 -14 -198 -16 -1502 -16 -1015 0 -1468 3 -1495 11
-58 16 -139 101 -154 161 -9 35 -12 396 -12 1413 0 1474 3 1392 -52 1441 -12
12 -43 29 -68 38 -133 51 -298 189 -369 308 -192 328 -127 722 161 965 97 83
245 152 366 173 26 4 769 7 1652 6 l1605 -1 70 -23z"/>
<path d="M2213 3851 c-23 -11 -48 -30 -57 -43 -17 -26 -41 -121 -114 -443
l-48 -210 -324 -5 c-364 -6 -355 -4 -391 -78 -33 -67 -14 -139 48 -179 24 -16
62 -19 313 -23 210 -4 284 -8 283 -17 -7 -33 -115 -513 -124 -545 l-10 -38
-280 0 c-314 0 -330 -3 -373 -66 -47 -70 -26 -157 48 -203 31 -20 49 -21 285
-21 138 0 251 -2 251 -5 0 -2 -27 -124 -60 -271 -33 -147 -60 -282 -60 -301 0
-125 156 -186 243 -95 22 23 35 57 62 168 33 134 115 492 115 500 0 2 167 4
370 4 l370 0 -6 -27 c-3 -16 -12 -50 -19 -78 -25 -90 -105 -455 -105 -476 0
-33 39 -98 68 -113 52 -26 88 -29 136 -8 69 31 70 33 162 440 30 135 57 250
60 254 3 4 159 8 347 8 l342 0 36 24 c85 58 88 179 6 240 -27 20 -42 21 -349
24 -297 3 -319 4 -313 20 4 9 33 136 66 282 33 146 62 273 65 283 5 16 29 17
321 17 269 0 320 2 349 16 93 44 100 190 11 244 -30 19 -52 20 -319 20 -159 0
-288 3 -288 8 0 4 28 131 62 282 69 311 70 332 12 386 -41 40 -97 51 -145 31
-60 -26 -79 -56 -110 -184 -29 -114 -119 -508 -119 -518 0 -3 -166 -5 -370 -5
-203 0 -370 3 -370 6 0 3 18 79 39 167 22 89 52 219 67 288 l27 126 -21 44
c-37 75 -115 104 -189 70z m747 -994 c0 -7 -13 -64 -29 -127 -15 -63 -46 -193
-67 -287 l-38 -173 -368 0 c-288 0 -368 3 -368 13 0 6 12 57 25 111 14 55 44
181 66 279 22 99 42 184 45 189 3 4 169 8 370 8 287 0 364 -3 364 -13z"/>
</g>
</svg>
