<?xml version="1.0" standalone="no"?>
<!DOCTYPE svg PUBLIC "-//W3C//DTD SVG 20010904//EN"
 "http://www.w3.org/TR/2001/REC-SVG-20010904/DTD/svg10.dtd">
<svg version="1.0" xmlns="http://www.w3.org/2000/svg"
 width="512.000000pt" height="512.000000pt" viewBox="0 0 512.000000 512.000000"
 preserveAspectRatio="xMidYMid meet">

<g transform="translate(0.000000,512.000000) scale(0.100000,-0.100000)"
fill="#ffffff" stroke="none">
<path d="M1300 4357 c-668 -293 -1225 -539 -1237 -545 -13 -7 -32 -31 -44 -54
-54 -106 29 -229 145 -215 23 3 543 225 1219 520 l1178 516 1177 -516 c670
-293 1195 -517 1218 -520 81 -10 152 48 162 132 6 61 -28 120 -88 150 -25 12
-581 257 -1237 544 -986 431 -1199 521 -1235 520 -34 0 -286 -106 -1258 -532z"/>
<path d="M2345 2779 c-1014 -48 -1824 -477 -2097 -1111 -66 -154 -91 -278 -92
-453 -1 -127 3 -163 22 -235 62 -226 203 -386 447 -505 374 -182 872 -245
1935 -245 661 0 1024 20 1358 75 610 100 933 317 1028 690 24 96 25 319 1 431
-95 444 -405 801 -912 1049 -382 187 -775 280 -1290 305 -110 5 -209 9 -220 8
-11 0 -92 -4 -180 -9z m170 -351 c71 -156 53 -434 -35 -553 -16 -22 -37 -50
-46 -63 -27 -37 -29 -102 -5 -149 22 -43 85 -83 131 -83 97 0 206 137 267 337
24 80 27 103 27 258 0 126 -4 187 -16 235 -9 36 -16 65 -15 66 1 1 60 -5 130
-12 169 -18 294 -39 449 -76 l126 -30 26 -48 c37 -69 56 -161 56 -281 0 -142
-15 -190 -79 -249 -71 -65 -84 -130 -42 -208 19 -35 74 -62 127 -62 120 0 241
143 280 332 16 74 21 309 9 349 -6 19 4 15 81 -25 307 -162 546 -419 633 -682
82 -244 59 -458 -64 -601 -130 -152 -428 -256 -880 -307 -302 -35 -470 -41
-1115 -41 -645 0 -812 6 -1115 41 -448 51 -751 156 -880 307 -91 106 -128 248
-107 414 53 415 374 762 907 979 l80 32 16 -31 c28 -56 42 -139 42 -247 -1
-142 -13 -184 -73 -240 -60 -57 -70 -77 -70 -140 0 -45 4 -55 38 -92 35 -37
45 -42 94 -46 37 -3 64 1 84 11 58 30 121 96 157 165 55 104 70 182 70 352 -1
140 -9 191 -54 339 -5 17 19 24 166 51 149 27 348 48 473 49 l103 1 24 -52z"/>
</g>
</svg>
