<?xml version="1.0" standalone="no"?>
<!DOCTYPE svg PUBLIC "-//W3C//DTD SVG 20010904//EN"
 "http://www.w3.org/TR/2001/REC-SVG-20010904/DTD/svg10.dtd">
<svg version="1.0" xmlns="http://www.w3.org/2000/svg"
 width="512.000000pt" height="512.000000pt" viewBox="0 0 512.000000 512.000000"
 preserveAspectRatio="xMidYMid meet">

<g transform="translate(0.000000,512.000000) scale(0.100000,-0.100000)"
fill="#ffffff" stroke="none">
<path d="M2961 5109 c-346 -37 -700 -179 -986 -398 -85 -65 -247 -223 -318
-311 -312 -387 -469 -890 -429 -1377 7 -80 21 -191 33 -247 56 -279 197 -584
370 -802 27 -34 49 -66 49 -71 0 -4 -56 -64 -125 -133 l-125 -125 -105 105
-105 105 -610 -610 -610 -610 318 -318 317 -317 610 610 610 610 -108 108
-107 107 129 129 129 128 58 -48 c95 -77 244 -170 366 -229 669 -321 1451
-239 2043 214 85 65 247 223 318 311 478 592 571 1405 238 2085 -232 473 -638
829 -1136 994 -263 87 -548 118 -824 90z m488 -313 c343 -63 640 -217 881
-456 247 -247 401 -541 467 -893 23 -128 23 -426 0 -554 -65 -345 -222 -648
-462 -888 -240 -240 -542 -397 -888 -462 -128 -23 -426 -23 -554 0 -700 131
-1223 655 -1349 1352 -25 138 -25 412 0 550 62 342 215 640 452 880 278 281
608 438 1024 489 70 8 347 -3 429 -18z m-2414 -3976 l-395 -395 -107 108 -108
107 395 395 395 395 107 -107 108 -108 -395 -395z"/>
<path d="M2467 4069 c-97 -23 -205 -99 -263 -186 -57 -86 -76 -159 -72 -274 3
-87 7 -103 41 -172 42 -85 121 -166 202 -208 l50 -25 3 -462 2 -462 748 2 747
3 3 460 2 460 54 28 c116 61 216 204 234 334 32 231 -117 451 -339 502 -55 13
-1358 13 -1412 0z m1383 -311 c51 -35 72 -69 72 -119 1 -54 -21 -100 -64 -131
-28 -19 -48 -24 -130 -26 l-98 -4 -2 -446 -3 -447 -447 -3 -448 -2 0 449 0
449 -103 4 c-87 3 -107 7 -135 26 -88 63 -82 196 10 252 32 19 52 20 674 20
l641 0 33 -22z"/>
<path d="M3030 3030 l0 -151 148 3 147 3 3 148 3 147 -151 0 -150 0 0 -150z"/>
</g>
</svg>
