<?xml version="1.0" standalone="no"?>
<!DOCTYPE svg PUBLIC "-//W3C//DTD SVG 20010904//EN"
 "http://www.w3.org/TR/2001/REC-SVG-20010904/DTD/svg10.dtd">
<svg version="1.0" xmlns="http://www.w3.org/2000/svg"
 width="512.000000pt" height="512.000000pt" viewBox="0 0 512.000000 512.000000"
 preserveAspectRatio="xMidYMid meet">

<g transform="translate(0.000000,512.000000) scale(0.100000,-0.100000)"
fill="#ffffff" stroke="none">
<path d="M3680 4884 c-30 -8 -81 -31 -113 -50 l-58 -36 -42 17 c-23 9 -74 19
-113 22 -125 10 -236 -30 -329 -118 -248 -235 -136 -641 201 -731 l44 -12 0
-306 c0 -341 4 -374 65 -489 33 -62 35 -70 35 -167 l0 -102 -67 -6 c-112 -10
-170 -26 -252 -67 -135 -67 -247 -207 -285 -355 -13 -49 -16 -119 -16 -338 l0
-276 1045 0 1045 0 0 276 c0 306 -6 350 -63 459 -42 80 -164 202 -239 238 -68
33 -157 55 -250 63 l-68 6 0 102 c0 97 2 105 35 167 61 115 65 148 65 489 l0
306 44 12 c160 42 281 161 322 316 61 229 -88 470 -325 526 -66 15 -180 8
-238 -15 l-42 -17 -58 36 c-103 63 -227 81 -343 50z m227 -189 c32 -16 68 -47
96 -80 l45 -55 38 31 c117 94 275 90 366 -7 90 -96 90 -254 0 -348 -53 -55
-103 -76 -187 -76 -69 0 -106 14 -186 72 -13 9 -27 2 -77 -38 -34 -27 -62 -54
-62 -61 0 -19 81 -83 142 -111 l58 -27 0 -92 0 -93 -345 0 -345 0 0 93 0 92
58 27 c61 28 142 92 142 111 0 7 -28 34 -62 61 -50 40 -64 47 -77 38 -80 -58
-117 -72 -186 -72 -84 0 -134 21 -187 76 -70 73 -88 187 -44 279 74 157 264
193 410 76 l38 -31 45 55 c59 71 125 105 208 105 45 0 74 -7 112 -25z m233
-1200 c0 -160 -16 -217 -85 -292 -136 -153 -357 -159 -504 -14 -84 82 -101
133 -101 306 l0 135 345 0 345 0 0 -135z m-530 -555 c104 -41 266 -41 370 0
28 11 53 20 55 20 3 0 5 -38 5 -84 l0 -84 -46 -21 c-114 -54 -284 -54 -398 0
l-46 21 0 84 c0 46 2 84 5 84 2 0 27 -9 55 -20z m-235 -246 c72 -52 192 -109
263 -124 l62 -13 0 -253 0 -254 -386 0 -385 0 3 203 3 202 32 60 c50 97 142
172 244 199 85 23 109 20 164 -20z m1000 21 c105 -28 197 -101 248 -200 l32
-60 3 -202 3 -203 -385 0 -386 0 0 254 0 253 62 13 c71 15 191 72 263 124 56
40 75 43 160 21z"/>
<path d="M4086 2369 c-28 -33 -32 -59 -14 -92 17 -32 39 -46 75 -47 45 0 62 9
78 41 21 40 19 63 -11 98 -20 25 -34 31 -64 31 -30 0 -44 -6 -64 -31z"/>
<path d="M1650 4426 c-66 -15 -153 -53 -214 -95 -44 -31 -66 -37 -80 -24 -13
13 -82 32 -155 44 -299 45 -594 -160 -666 -462 -62 -266 74 -552 319 -669 45
-21 107 -44 139 -51 l57 -12 0 -431 c0 -347 3 -443 15 -494 16 -68 71 -194
105 -242 19 -27 20 -40 18 -177 l-3 -148 -111 -6 c-124 -8 -194 -25 -301 -74
-96 -44 -146 -80 -229 -164 -75 -76 -123 -147 -161 -242 -56 -138 -56 -137
-60 -561 l-4 -398 1461 0 1461 0 -4 398 c-4 374 -5 401 -26 472 -63 213 -204
383 -401 484 -114 58 -181 76 -319 84 l-116 7 -3 148 c-2 142 -2 149 21 180
28 37 57 99 89 188 23 63 23 73 26 520 l3 456 55 12 c217 49 380 201 455 426
18 54 18 255 0 320 -35 125 -134 263 -245 339 -31 21 -95 52 -143 69 -75 26
-103 30 -188 31 -95 0 -214 -23 -239 -45 -17 -15 -38 -10 -73 17 -49 37 -157
85 -227 100 -75 16 -182 16 -256 0z m283 -270 c61 -31 85 -51 150 -128 l49
-57 86 58 c96 64 143 81 222 81 141 0 281 -96 330 -227 28 -75 27 -183 -2
-260 -28 -74 -106 -154 -185 -190 -48 -22 -72 -27 -143 -27 -99 1 -157 21
-232 84 l-46 40 -96 -77 -97 -76 33 -35 c52 -53 148 -119 211 -142 l58 -22 -3
-131 -3 -132 -485 0 -485 0 -3 131 -3 131 56 21 c66 26 156 86 207 139 l38 39
-73 60 c-122 102 -114 99 -160 58 -68 -62 -139 -88 -237 -88 -105 0 -172 28
-246 100 -79 78 -99 129 -99 249 0 91 3 105 29 158 56 110 172 187 294 195 88
6 144 -12 244 -79 l87 -58 48 56 c64 76 90 98 142 124 65 33 98 39 184 35 59
-3 91 -11 130 -30z m335 -1631 c4 -170 -9 -248 -54 -342 -97 -203 -333 -315
-547 -259 -186 49 -316 184 -362 377 -15 65 -22 349 -8 362 3 4 223 6 487 5
l481 -3 3 -140z m-730 -820 c151 -54 331 -54 484 0 40 14 81 28 91 32 16 5 17
-3 15 -113 l-3 -119 -40 -19 c-76 -36 -150 -57 -240 -68 -79 -9 -102 -8 -188
10 -54 11 -127 34 -163 51 l-64 30 0 117 c0 106 2 116 18 111 9 -3 50 -17 90
-32z m-359 -324 c49 -38 166 -109 221 -134 25 -11 92 -32 150 -48 l105 -27 3
-351 2 -351 -545 0 -545 0 0 238 c1 263 8 315 60 417 45 89 145 186 233 229
93 45 128 54 211 55 61 1 72 -2 105 -28z m1422 13 c187 -55 345 -223 379 -403
5 -30 10 -159 10 -287 l0 -234 -545 0 -545 0 2 351 3 351 107 27 c123 32 197
66 323 150 85 56 94 60 151 60 33 1 85 -6 115 -15z"/>
<path d="M2215 942 c-41 -26 -55 -44 -62 -85 -8 -50 21 -103 68 -127 48 -25
60 -25 108 0 47 24 76 77 68 128 -14 82 -111 127 -182 84z"/>
</g>
</svg>
