<?xml version="1.0" standalone="no"?>
<!DOCTYPE svg PUBLIC "-//W3C//DTD SVG 20010904//EN"
 "http://www.w3.org/TR/2001/REC-SVG-20010904/DTD/svg10.dtd">
<svg version="1.0" xmlns="http://www.w3.org/2000/svg"
 width="512.000000pt" height="512.000000pt" viewBox="0 0 512.000000 512.000000"
 preserveAspectRatio="xMidYMid meet">

<g transform="translate(0.000000,512.000000) scale(0.100000,-0.100000)"
fill="#ffffff" stroke="none">
<path d="M1956 5110 c-453 -72 -765 -397 -743 -775 11 -184 105 -366 251 -488
l46 -38 0 -509 c0 -306 4 -540 11 -587 33 -242 175 -499 364 -655 141 -118
348 -212 515 -236 45 -7 -117 -10 -523 -11 -643 -1 -673 -3 -809 -61 -173 -74
-327 -228 -399 -400 -57 -135 -59 -167 -59 -785 l0 -565 1950 0 1950 0 0 565
c0 479 -2 578 -16 643 -61 295 -291 525 -586 586 -65 13 -171 16 -665 18 -323
0 -572 3 -553 5 66 7 204 45 281 78 243 102 468 331 560 570 75 194 73 169 77
787 l3 557 49 41 c65 54 153 171 188 250 189 419 -77 863 -595 992 -72 18
-117 22 -243 22 -167 0 -263 -17 -389 -68 l-61 -25 -60 25 c-146 59 -391 88
-544 64z m303 -304 c6 -4 -2 -24 -24 -55 -69 -96 -124 -250 -125 -348 l0 -33
149 0 148 0 7 49 c10 76 59 162 129 228 125 117 266 167 467 167 86 0 145 -5
190 -17 166 -44 311 -152 372 -275 29 -59 33 -76 33 -152 0 -76 -4 -93 -33
-152 -36 -74 -117 -156 -207 -210 l-55 -33 0 -177 0 -178 -750 0 -750 0 0 178
0 177 -66 40 c-84 51 -168 139 -202 212 -23 49 -27 71 -27 143 0 76 4 93 32
150 72 146 234 253 440 290 52 10 254 7 272 -4z m1048 -1783 c-3 -237 -8 -310
-21 -354 -113 -387 -491 -622 -874 -543 -293 61 -525 293 -586 586 -12 59 -16
139 -16 343 l0 265 751 0 751 0 -5 -297z m-1143 -1647 c-206 -138 -265 -190
-304 -272 -46 -94 -50 -131 -50 -476 l0 -328 -450 0 -450 0 0 400 c0 424 3
464 48 560 33 69 130 168 197 200 100 47 119 48 680 49 l530 1 -201 -134z
m1688 123 c171 -36 310 -175 347 -347 7 -34 11 -192 11 -452 l0 -400 -1050 0
-1050 0 0 315 c0 279 2 319 18 351 14 32 72 74 397 291 l380 253 447 0 c290 0
466 -4 500 -11z"/>
<path d="M2410 760 l0 -150 150 0 150 0 0 150 0 150 -150 0 -150 0 0 -150z"/>
</g>
</svg>
